<svg xmlns="http://www.w3.org/2000/svg" width="24" height="24" viewBox="0 0 24 24"><defs><linearGradient id="a" x1="50%" x2="50%" y1="0%" y2="98.667%"><stop offset="0%" stop-color="#FFC227"/><stop offset="100%" stop-color="#FFB300"/></linearGradient></defs><g fill="none"><circle cx="12" cy="12" r="5" fill="url(#a)"/><path fill="#FFB300" fill-rule="nonzero" d="M16.699 2.603l-1.175 2.837c-.383.924-1.769.35-1.386-.574l1.175-2.837c.383-.924 1.769-.35 1.386.574zm-6.846 16.527l-1.175 2.837c-.383.924-1.769.35-1.386-.574l1.175-2.837c.383-.924 1.769-.35 1.386.574zm12.112-10.449l-2.837 1.175c-.924.383-1.498-1.003-.574-1.386l2.837-1.175c.924-.383 1.498 1.003.574 1.386zm-16.527 6.846l-2.837 1.175c-.924.383-1.498-1.003-.574-1.386l2.837-1.175c.924-.383 1.498 1.003.574 1.386zm15.953 1.176l-2.837-1.175c-.924-.383-.35-1.769.574-1.386l2.837 1.175c.924.383.35 1.769-.574 1.386zm-16.527-6.846l-2.837-1.175c-.924-.383-.35-1.769.574-1.386l2.837 1.175c.924.383.35 1.769-.574 1.386zm3.813-7.829l1.175 2.837c.383.924-1.003 1.498-1.386.574l-1.175-2.837c-.383-.924 1.003-1.498 1.386-.574zm6.846 16.527l1.175 2.837c.383.924-1.003 1.498-1.386.574l-1.175-2.837c-.383-.924 1.003-1.498 1.386-.574z"/></g></svg>