<svg viewBox="0 0 32 32" xml:space="preserve" xmlns="http://www.w3.org/2000/svg" enable-background="new 0 0 32 32"><path d="M16.707 2.293a1 1 0 0 0-1.414 0C14.913 2.673 6 11.682 6 20c0 5.514 4.486 10 10 10s10-4.486 10-10c0-8.318-8.913-17.328-9.293-17.707zM16 28c-4.411 0-8-3.589-8-8 0-6.208 5.925-13.261 8-15.541 2.076 2.278 8 9.325 8 15.541 0 4.411-3.589 8-8 8z" fill="#ffffff" class="fill-000000"></path><path d="M16 24c-2.206 0-4-1.81-4-4.036a1 1 0 0 0-2 0C10 23.292 12.691 26 16 26a1 1 0 0 0 0-2z" fill="#ffffff" class="fill-000000"></path></svg>