<svg viewBox="0 0 512 512" xml:space="preserve" xmlns="http://www.w3.org/2000/svg" shape-rendering="geometricPrecision" text-rendering="geometricPrecision" image-rendering="optimizeQuality" fill-rule="evenodd" clip-rule="evenodd"><path d="M229 162c13-39 49-66 91-66 53 0 96 43 96 96 0 19-5 36-15 51" fill="none" stroke="#ffffff" stroke-width="31.9998" stroke-linecap="round" stroke-linejoin="round" class="stroke-000000"></path><path d="M304 16c0-9 7-16 16-16s16 7 16 16h-32zm0 32V16h32v32h-32zm32 0c0 9-7 16-16 16s-16-7-16-16h32zM464 208c-9 0-16-7-16-16s7-16 16-16v32zm32 0h-32v-32h32v32zm0-32c9 0 16 7 16 16s-7 16-16 16v-32zM184 79c-6-6-6-17 0-23s17-6 23 0l-23 23zm23 22-23-22 23-23 22 23-22 22zm22-22c7 6 7 16 0 22-6 7-16 7-22 0l22-22zM456 79l-23-23c6-6 17-6 23 0s6 17 0 23zm-23 22-22-22 22-23 23 23-23 22zm-22-22 22 22c-6 7-16 7-22 0-7-6-7-16 0-22z" fill="#ffffff" fill-rule="nonzero" class="fill-000000"></path><path d="M62 393c-28-26-46-63-46-105 0-80 64-144 144-144 52 0 98 28 124 70 11-4 23-6 36-6 62 0 112 50 112 112 0 44-25 82-62 100M176 496l64-144M272 496l64-144M96 448v48M96 448v48M75 460l42 24M75 484l42-24M144 352v48M144 352v48M123 364l42 24M123 388l42-24" fill="none" stroke="#ffffff" stroke-width="31.9998" stroke-linecap="round" stroke-linejoin="round" class="stroke-000000"></path></svg>