<svg xmlns="http://www.w3.org/2000/svg" width="24" height="24" viewBox="0 0 24 24"><defs><linearGradient id="a" x1="50%" x2="50%" y1="0%" y2="100%"><stop offset="0%" stop-color="#9FC7FF"/><stop offset="100%" stop-color="#9BC1F5"/></linearGradient><radialGradient id="b" cx="55.585%" cy="10.083%" r="58.215%" fx="55.585%" fy="10.083%" gradientTransform="matrix(0 -1 .719 0 .483 .657)"><stop offset="0%" stop-color="#486DA8" stop-opacity=".4"/><stop offset="100%" stop-color="#486DA8" stop-opacity="0"/></radialGradient></defs><g fill="none"><path fill="#67C8E2" fill-rule="nonzero" d="M16.125 18.417l.682-.394c.722-.417 1.347.666.625 1.083l-.682.394.682.394c.722.417.097 1.499-.625 1.083l-.682-.394v.787c0 .345-.28.625-.625.625s-.625-.28-.625-.625v-.787l-.682.394c-.722.417-1.347-.666-.625-1.083l.682-.394-.682-.394c-.722-.417-.097-1.499.625-1.083l.682.394v-.787c0-.345.28-.625.625-.625s.625.28.625.625v.787zm-7-2l.682-.394c.722-.417 1.347.666.625 1.083l-.682.394.682.394c.722.417.097 1.499-.625 1.083l-.682-.394v.787c0 .345-.28.625-.625.625s-.625-.28-.625-.625v-.787l-.682.394c-.722.417-1.347-.666-.625-1.083l.682-.394-.682-.394c-.722-.417-.097-1.499.625-1.083l.682.394v-.787c0-.345.28-.625.625-.625s.625.28.625.625v.787z"/><path fill="url(#a)" d="M7 14c-2.209 0-4-1.791-4-4s1.791-4 4-4c.417 0 .818.064 1.196.182.563-1.842 2.277-3.182 4.304-3.182 2.485 0 4.5 2.015 4.5 4.5 0 .235-.018.465-.053.69.328-.123.682-.19 1.053-.19 1.657 0 3 1.343 3 3s-1.343 3-3 3h-11z"/><path fill="url(#b)" d="M8 7.5c0 2.485 2.015 4.5 4.5 4.5 2.251 0 4.115-1.652 4.447-3.81.328-.123.682-.19 1.053-.19 1.657 0 3 1.343 3 3s-1.343 3-3 3h-11c-2.209 0-4-1.791-4-4s1.791-4 4-4c.417 0 .818.064 1.196.182-.128.417-.196.859-.196 1.318z"/></g></svg>